<svg xmlns="http://www.w3.org/2000/svg" xmlns:xlink="http://www.w3.org/1999/xlink" xml:space="preserve" width="2048px" height="2048px" style="shape-rendering:geometricPrecision; text-rendering:geometricPrecision; image-rendering:optimizeQuality; fill-rule:evenodd; clip-rule:evenodd" viewBox="0 0 2048 2048">
 <defs fill="#ffffff">
  <style type="text/css">
   <![CDATA[
    .fil2 {fill:none}
    .fil0 {fill:#fcfcfc}
    .fil1 {fill:#fcfcfc;fill-rule:nonzero}
   ]]>
  </style>
 </defs>
 <g id="Layer_x0020_1">
  <metadata id="CorelCorpID_0Corel-Layer" fill="#ffffff"/>
  <path class="fil0" d="M478.93 255.999l232.366 0c13.8555,0 26.4319,5.64685 35.5264,14.7413 9.0945,9.0945 14.7413,21.6685 14.7413,35.5264l0 1005.5c0,13.774 -5.64685,26.3044 -14.7413,35.4024l0 0.125197c-9.0945,9.0945 -21.6709,14.7413 -35.5264,14.7413l-232.366 0c-13.8579,0 -26.4319,-5.64685 -35.5264,-14.7413 -9.0945,-9.0945 -14.7413,-21.6709 -14.7413,-35.5276l0 -1005.5c0,-13.8555 5.64449,-26.4319 14.7402,-35.5276 9.09568,-9.09568 21.6721,-14.7402 35.5276,-14.7402zm116.183 831.577c23.0008,0 43.8296,9.32717 58.9075,24.4051 15.078,15.078 24.4051,35.9067 24.4051,58.9075 0,23.0032 -9.32717,43.8319 -24.4051,58.9075 -15.078,15.078 -35.9067,24.4051 -58.9075,24.4051 -23.002,0 -43.8307,-9.32835 -58.9087,-24.404 -15.0756,-15.078 -24.404,-35.9067 -24.404,-58.9087 0,-23.002 9.32835,-43.8307 24.404,-58.9087 15.078,-15.0756 35.9067,-24.404 58.9087,-24.404zm-134.45 -530.75l268.899 0 0 64.0016 -268.899 0 0 -64.0016zm0 -119.513l268.899 0 0 64.0016 -268.899 0 0 -64.0016z" fill="#ffffff"/>
  <polygon class="fil1" points="1324.21,1609.33 1359.45,1778.79 1296.95,1791.79 1261.71,1622.33 1194.51,1636.3 1145.42,1646.51 1155.88,1597.54 1208.84,1349.63 1224.32,1277.16 1267.43,1337.47 1414.83,1543.72 1443.93,1584.43 1394.88,1594.64 " fill="#ffffff"/>
  <path class="fil0" d="M907.817 255.999l232.366 0c13.8555,0 26.4319,5.64685 35.5264,14.7413 9.0945,9.0945 14.7413,21.6685 14.7413,35.5264l0 1005.5c0,13.774 -5.64685,26.3044 -14.7413,35.4024l0 0.125197c-9.0945,9.0945 -21.6709,14.7413 -35.5264,14.7413l-232.366 0c-13.8579,0 -26.4319,-5.64685 -35.5264,-14.7413 -9.0945,-9.0945 -14.7413,-21.6709 -14.7413,-35.5276l0 -1005.5c0,-13.8555 5.64449,-26.4319 14.7402,-35.5276 9.09568,-9.09568 21.6721,-14.7402 35.5276,-14.7402zm116.183 831.577c23.0008,0 43.8296,9.32717 58.9075,24.4051 15.078,15.078 24.4051,35.9067 24.4051,58.9075 0,23.0032 -9.32717,43.8319 -24.4051,58.9075 -15.078,15.078 -35.9067,24.4051 -58.9075,24.4051 -23.002,0 -43.8307,-9.32835 -58.9087,-24.404 -15.0756,-15.078 -24.404,-35.9067 -24.404,-58.9087 0,-23.002 9.32835,-43.8307 24.404,-58.9087 15.078,-15.0756 35.9067,-24.404 58.9087,-24.404zm-134.45 -530.75l268.899 0 0 64.0016 -268.899 0 0 -64.0016zm0 -119.513l268.899 0 0 64.0016 -268.899 0 0 -64.0016z" fill="#ffffff"/>
  <path class="fil0" d="M1336.7 255.999l232.366 0c13.8555,0 26.4319,5.64685 35.5264,14.7413 9.0945,9.0945 14.7413,21.6685 14.7413,35.5264l0 1005.5c0,13.774 -5.64685,26.3044 -14.7413,35.4024l0 0.125197c-9.0945,9.0945 -21.6709,14.7413 -35.5264,14.7413l-232.366 0c-13.8579,0 -26.4319,-5.64685 -35.5264,-14.7413 -9.0945,-9.0945 -14.7413,-21.6709 -14.7413,-35.5276l0 -1005.5c0,-13.8555 5.64449,-26.4319 14.7402,-35.5276 9.09568,-9.09568 21.6721,-14.7402 35.5276,-14.7402zm116.183 831.577c23.0008,0 43.8296,9.32717 58.9075,24.4051 15.078,15.078 24.4051,35.9067 24.4051,58.9075 0,23.0032 -9.32717,43.8319 -24.4051,58.9075 -15.078,15.078 -35.9067,24.4051 -58.9075,24.4051 -23.002,0 -43.8307,-9.32835 -58.9087,-24.404 -15.0756,-15.078 -24.404,-35.9067 -24.404,-58.9087 0,-23.002 9.32835,-43.8307 24.404,-58.9087 15.078,-15.0756 35.9067,-24.404 58.9087,-24.404zm-134.45 -530.75l268.899 0 0 64.0016 -268.899 0 0 -64.0016zm0 -119.513l268.899 0 0 64.0016 -268.899 0 0 -64.0016z" fill="#ffffff"/>
 </g>
 <rect class="fil2" width="2048" height="2048" fill="#ffffff"/>
</svg>